<svg width="11" height="12" viewBox="0 0 11 12" fill="none" xmlns="http://www.w3.org/2000/svg">
<path d="M9.69892 5.03226C10.172 4.90323 10.5269 4.90323 11 4.90323V7.09678C10.5269 7.09678 10.172 6.96774 9.69892 6.96774L9.10752 8.64516C9.46236 8.90322 9.81719 9.16129 10.172 9.54839L8.75266 11.0968C8.5161 10.7097 8.16129 10.3226 7.92473 9.93548L6.38708 10.5806C6.50536 11.0968 6.50536 11.4839 6.50536 12H4.49464C4.49464 11.4839 4.61289 11.0968 4.61289 10.5806L3.07527 9.93548C2.83871 10.3226 2.60214 10.7097 2.2473 11.0968L0.82797 9.54839C1.18281 9.29032 1.53764 8.90322 1.89248 8.64516L1.30108 6.96774C0.827963 7.09677 0.473117 7.09678 0 7.09678V4.90323C0.473117 4.90323 0.827963 5.03226 1.30108 5.03226L1.89248 3.35484C1.53764 3.09677 1.18281 2.83871 0.82797 2.45161L2.2473 0.903226C2.48386 1.29032 2.83871 1.67742 3.07527 2.06452L4.61289 1.41936C4.49461 0.903226 4.49464 0.516129 4.49464 0H6.50536C6.50536 0.516129 6.38708 0.903226 6.38708 1.41936L7.92473 2.06452C8.16129 1.67742 8.39783 1.29032 8.75266 0.903226L10.172 2.45161C9.81719 2.70968 9.46236 3.09677 9.10752 3.35484L9.69892 5.03226ZM5.55914 3.35484C4.25807 3.35484 3.07527 4.51613 3.07527 6.06452C3.07527 7.48387 4.13979 8.77419 5.55914 8.77419C6.86022 8.77419 8.04302 7.6129 8.04302 6.06452C7.92474 4.51613 6.86022 3.35484 5.55914 3.35484Z" fill="white"/>
</svg>
